# xmcd
#
# Track frame offsets:
#	150
#	41030
#	93309
#
# Disc length: 3586 seconds
#
# Revision: 0
# Processed by: cddbd v1.5.2PL0 Copyright (c) Steve Scherf et al.
# Submitted via: EasyCDDAExtractor 16.0.6.1
#
DISCID=1d0e0003
DTITLE=Συλλογικός δίσκος - Ο Μίκης Θεοδωράκης στο Αριστοτέλειο 2
DYEAR=2000
DGENRE=Ποικίλη
TTITLE0=Βαϊούλη Βάσω - Συμφωνία αρ. 3, μέρος 3ο [βυζ. ύμνοι για Πέτρο της ΕΠΟΝ
TTITLE0=]
TTITLE1=Μιχαλόπουλος Κώστας - Άξιον Εστί, αρ. 6,7,8 [Ιντερμέτζο-Της αγάπης-Ναο
TTITLE1=ί, Οδ. Ελύτη]
TTITLE2=Ψιλιτέλλη Μακαρία-Μιχαλόπουλος Κ.-Καραδημήτρης Παν. - Πνευματικό Εμβατ
TTITLE2=ήριο [Άγγ. Σικελιανού]
EXTD=
EXTT0=
EXTT1=
EXTT2=
PLAYORDER=
